<?xml version="1.0" standalone="no"?>
<!DOCTYPE svg PUBLIC "-//W3C//DTD SVG 20010904//EN"
 "http://www.w3.org/TR/2001/REC-SVG-20010904/DTD/svg10.dtd">
<svg version="1.0" xmlns="http://www.w3.org/2000/svg"
 width="823.000000pt" height="823.000000pt" viewBox="0 0 823.000000 823.000000"
 preserveAspectRatio="xMidYMid meet">
<metadata>
Created by potrace 1.11, written by Peter Selinger 2001-2013
</metadata>
<g transform="translate(0.000000,823.000000) scale(0.100000,-0.100000)"
fill="#000000" stroke="none">
<path d="M1894 6909 c-67 -57 -72 -64 -151 -226 l-82 -168 -6 -105 c-4 -58 -8
-121 -10 -140 -2 -19 -6 -78 -10 -130 -3 -52 -8 -111 -10 -130 -2 -19 -7 -64
-10 -100 -4 -36 -8 -77 -10 -93 -2 -15 -7 -61 -10 -102 -4 -41 -12 -119 -19
-173 -6 -53 -8 -113 -5 -132 6 -33 56 -226 129 -500 16 -63 42 -161 56 -217
15 -57 30 -100 35 -97 5 3 6 -1 3 -9 -4 -11 76 -238 125 -352 30 -71 35 -58
-85 -244 -138 -216 -209 -330 -210 -342 -1 -5 -2 -10 -4 -11 -1 -2 -3 -12 -5
-23 -1 -11 -5 -33 -9 -50 -3 -16 -9 -45 -12 -64 -3 -18 -8 -43 -10 -55 -3 -11
-11 -57 -19 -101 -8 -44 -26 -138 -41 -210 -30 -150 -37 -239 -23 -291 6 -20
12 -44 14 -53 2 -9 31 -137 65 -286 34 -148 64 -279 66 -290 8 -39 57 -250 59
-253 3 -3 532 -202 768 -289 55 -20 163 -70 240 -113 78 -42 196 -105 262
-140 66 -34 126 -67 133 -73 6 -5 12 -6 12 -1 0 4 10 -6 23 -22 59 -80 231
-273 239 -268 4 3 8 1 8 -5 0 -15 277 -214 360 -258 46 -25 106 -47 155 -57
44 -9 91 -19 105 -22 14 -3 39 -7 56 -10 50 -10 304 50 364 86 117 69 372 254
363 264 -3 3 0 6 8 6 8 0 66 61 128 135 121 143 121 143 276 225 55 29 123 65
150 80 224 122 285 153 325 165 22 7 483 177 520 192 8 3 20 7 25 9 30 9 152
55 165 63 9 5 30 12 47 15 38 9 42 20 97 271 20 88 48 210 62 270 25 106 28
121 39 175 3 14 18 79 33 146 l28 121 -18 89 c-10 49 -20 105 -23 124 -3 19
-14 78 -24 130 -11 52 -32 160 -47 240 -15 80 -30 147 -33 150 -3 3 -7 10 -8
15 -1 9 -132 217 -264 420 l-45 70 23 60 c92 231 152 402 168 475 2 8 18 67
35 130 17 63 33 124 35 135 3 11 31 121 63 245 l58 225 -22 200 c-12 110 -24
232 -28 270 -4 39 -8 84 -10 100 -2 17 -7 77 -11 135 -3 58 -8 119 -10 135 -2
17 -6 68 -10 115 -9 137 -10 141 -90 301 -76 152 -86 165 -182 245 l-41 35
-54 -27 c-63 -33 -100 -63 -91 -77 4 -6 1 -7 -6 -3 -8 5 -27 -6 -49 -27 -20
-20 -63 -59 -94 -87 -32 -29 -55 -57 -51 -63 3 -6 1 -7 -5 -3 -7 4 -32 -12
-59 -37 -27 -24 -60 -54 -75 -67 -15 -13 -25 -28 -21 -33 3 -6 2 -7 -4 -4 -6
4 -34 -28 -64 -69 -30 -42 -65 -85 -78 -95 -13 -11 -50 -43 -81 -72 -87 -80
-255 -235 -324 -299 -37 -35 -139 -105 -261 -179 -110 -66 -213 -130 -228
-141 -30 -21 -36 -22 -157 -33 -41 -4 -77 -9 -80 -10 -3 -2 -43 -6 -90 -10
-47 -4 -87 -8 -90 -10 -3 -2 -43 -6 -90 -10 -75 -6 -132 -2 -315 20 -16 2 -61
7 -100 10 -38 4 -77 8 -86 10 -9 2 -36 5 -60 6 -34 2 -71 20 -169 79 -214 131
-329 200 -333 200 -3 0 -41 35 -85 78 -44 43 -105 100 -134 126 -264 238 -334
308 -344 338 -3 10 -10 18 -15 18 -5 0 -9 5 -9 12 0 12 -75 87 -166 165 -54
46 -75 65 -185 165 -67 61 -116 94 -175 118 -16 6 -34 -3 -90 -51z m1286
-1493 c0 -2 -8 -10 -17 -17 -16 -13 -17 -12 -4 4 13 16 21 21 21 13z m110
-1940 c0 -2 -7 -7 -16 -10 -8 -3 -12 -2 -9 4 6 10 25 14 25 6z m1547 -128 c-3
-8 -6 -5 -6 6 -1 11 2 17 5 13 3 -3 4 -12 1 -19z m-1793 -16 c3 -5 -1 -9 -9
-9 -8 0 -12 4 -9 9 3 4 7 8 9 8 2 0 6 -4 9 -8z m2044 -127 c-3 -3 -9 2 -12 12
-6 14 -5 15 5 6 7 -7 10 -15 7 -18z m-1118 -2215 c0 -5 -2 -10 -4 -10 -3 0 -8
5 -11 10 -3 6 -1 10 4 10 6 0 11 -4 11 -10z"/>
</g>
</svg>
